HIERARCHY
ROOT hip
{
OFFSET 0.33 96.62 -0.53
CHANNELS 6 Xposition Yposition Zposition Zrotation Xrotation Yrotation
JOINT abdomen
{
OFFSET 0.04 7.24 0
CHANNELS 6 Xposition Yposition Zposition Zrotation Xrotation Yrotation
JOINT chest
{
OFFSET 0 16.55 -0
CHANNELS 6 Xposition Yposition Zposition Zrotation Xrotation Yrotation
JOINT neck
{
OFFSET -0 34.21 -0
CHANNELS 6 Xposition Yposition Zposition Zrotation Xrotation Yrotation
JOINT head
{
OFFSET 0 6.29 0
CHANNELS 6 Xposition Yposition Zposition Zrotation Xrotation Yrotation
End Site
{
OFFSET 0 0 0
}
}
}
JOINT lCollar
{
OFFSET 4.06 26.61 -1.12
CHANNELS 6 Xposition Yposition Zposition Zrotation Xrotation Yrotation
JOINT lShldr
{
OFFSET 14.17 0 0
CHANNELS 6 Xposition Yposition Zposition Zrotation Xrotation Yrotation
JOINT lForeArm
{
OFFSET 26.12 0 0
CHANNELS 6 Xposition Yposition Zposition Zrotation Xrotation Yrotation
JOINT lHand
{
OFFSET 27.71 0 0
CHANNELS 6 Xposition Yposition Zposition Zrotation Xrotation Yrotation
JOINT lThumb1
{
OFFSET 2.29 -0.46 1.83
CHANNELS 6 Xposition Yposition Zposition Zrotation Xrotation Yrotation
JOINT lThumb2
{
OFFSET 5.29 0 0
CHANNELS 6 Xposition Yposition Zposition Zrotation Xrotation Yrotation
JOINT lThumb3
{
OFFSET 3.01 0 0
CHANNELS 6 Xposition Yposition Zposition Zrotation Xrotation Yrotation
End Site
{
OFFSET 0 0 0
}
}
}
}
JOINT lIndex1
{
OFFSET 9.37 0.29 2.59
CHANNELS 6 Xposition Yposition Zposition Zrotation Xrotation Yrotation
JOINT lIndex2
{
OFFSET 4.34 0 0
CHANNELS 6 Xposition Yposition Zposition Zrotation Xrotation Yrotation
JOINT lIndex3
{
OFFSET 2.16 0 0
CHANNELS 6 Xposition Yposition Zposition Zrotation Xrotation Yrotation
End Site
{
OFFSET 0 0 0
}
}
}
}
JOINT lMid1
{
OFFSET 9.47 0.83 0.29
CHANNELS 6 Xposition Yposition Zposition Zrotation Xrotation Yrotation
JOINT lMid2
{
OFFSET 4.77 0 0
CHANNELS 6 Xposition Yposition Zposition Zrotation Xrotation Yrotation
JOINT lMid3
{
OFFSET 2.87 0 0
CHANNELS 6 Xposition Yposition Zposition Zrotation Xrotation Yrotation
End Site
{
OFFSET 0 0 0
}
}
}
}
JOINT lRing1
{
OFFSET 8.65 1.01 -1.70
CHANNELS 6 Xposition Yposition Zposition Zrotation Xrotation Yrotation
JOINT lRing2
{
OFFSET 4.54 0 0
CHANNELS 6 Xposition Yposition Zposition Zrotation Xrotation Yrotation
JOINT lRing3
{
OFFSET 2.50 0 0
CHANNELS 6 Xposition Yposition Zposition Zrotation Xrotation Yrotation
End Site
{
OFFSET 0 0 0
}
}
}
}
JOINT lPinky1
{
OFFSET 7.69 0.66 -3.90
CHANNELS 6 Xposition Yposition Zposition Zrotation Xrotation Yrotation
JOINT lPinky2
{
OFFSET 3.21 0 0
CHANNELS 6 Xposition Yposition Zposition Zrotation Xrotation Yrotation
JOINT lPinky3
{
OFFSET 1.92 0 0
CHANNELS 6 Xposition Yposition Zposition Zrotation Xrotation Yrotation
End Site
{
OFFSET 0 0 0
}
}
}
}
}
}
}
}
JOINT rCollar
{
OFFSET -4.06 26.61 -1.12
CHANNELS 6 Xposition Yposition Zposition Zrotation Xrotation Yrotation
JOINT rShldr
{
OFFSET -14.17 0 0
CHANNELS 6 Xposition Yposition Zposition Zrotation Xrotation Yrotation
JOINT rForeArm
{
OFFSET -26.12 0 0
CHANNELS 6 Xposition Yposition Zposition Zrotation Xrotation Yrotation
JOINT rHand
{
OFFSET -27.71 0 0
CHANNELS 6 Xposition Yposition Zposition Zrotation Xrotation Yrotation
JOINT rThumb1
{
OFFSET -2.29 -0.46 1.83
CHANNELS 6 Xposition Yposition Zposition Zrotation Xrotation Yrotation
JOINT rThumb2
{
OFFSET -5.29 0 0
CHANNELS 6 Xposition Yposition Zposition Zrotation Xrotation Yrotation
JOINT rThumb3
{
OFFSET -3.01 0 0
CHANNELS 6 Xposition Yposition Zposition Zrotation Xrotation Yrotation
End Site
{
OFFSET 0 0 0
}
}
}
}
JOINT rIndex1
{
OFFSET -9.37 0.29 2.59
CHANNELS 6 Xposition Yposition Zposition Zrotation Xrotation Yrotation
JOINT rIndex2
{
OFFSET -4.34 0 0
CHANNELS 6 Xposition Yposition Zposition Zrotation Xrotation Yrotation
JOINT rIndex3
{
OFFSET -2.16 0 0
CHANNELS 6 Xposition Yposition Zposition Zrotation Xrotation Yrotation
End Site
{
OFFSET 0 0 0
}
}
}
}
JOINT rMid1
{
OFFSET -9.47 0.83 0.29
CHANNELS 6 Xposition Yposition Zposition Zrotation Xrotation Yrotation
JOINT rMid2
{
OFFSET -4.77 0 0
CHANNELS 6 Xposition Yposition Zposition Zrotation Xrotation Yrotation
JOINT rMid3
{
OFFSET -2.87 0 0
CHANNELS 6 Xposition Yposition Zposition Zrotation Xrotation Yrotation
End Site
{
OFFSET 0 0 0
}
}
}
}
JOINT rRing1
{
OFFSET -8.65 1.01 -1.70
CHANNELS 6 Xposition Yposition Zposition Zrotation Xrotation Yrotation
JOINT rRing2
{
OFFSET -4.54 0 0
CHANNELS 6 Xposition Yposition Zposition Zrotation Xrotation Yrotation
JOINT rRing3
{
OFFSET -2.50 0 0
CHANNELS 6 Xposition Yposition Zposition Zrotation Xrotation Yrotation
End Site
{
OFFSET 0 0 0
}
}
}
}
JOINT rPinky1
{
OFFSET -7.69 0.66 -3.90
CHANNELS 6 Xposition Yposition Zposition Zrotation Xrotation Yrotation
JOINT rPinky2
{
OFFSET -3.21 0 0
CHANNELS 6 Xposition Yposition Zposition Zrotation Xrotation Yrotation
JOINT rPinky3
{
OFFSET -1.92 0 0
CHANNELS 6 Xposition Yposition Zposition Zrotation Xrotation Yrotation
End Site
{
OFFSET 0 0 0
}
}
}
}
}
}
}
}
}
}
JOINT lThigh
{
OFFSET 8.73 -0 0
CHANNELS 6 Xposition Yposition Zposition Zrotation Xrotation Yrotation
JOINT lShin
{
OFFSET 0 -46.66 0
CHANNELS 6 Xposition Yposition Zposition Zrotation Xrotation Yrotation
JOINT lFoot
{
OFFSET 0 -40.14 0
CHANNELS 6 Xposition Yposition Zposition Zrotation Xrotation Yrotation
JOINT lToes
{
OFFSET 0 -8.88 14.22
CHANNELS 6 Xposition Yposition Zposition Zrotation Xrotation Yrotation
End Site
{
OFFSET 0 0 0
}
}
}
}
}
JOINT rThigh
{
OFFSET -8.73 0 -0
CHANNELS 6 Xposition Yposition Zposition Zrotation Xrotation Yrotation
JOINT rShin
{
OFFSET 0 -46.66 0
CHANNELS 6 Xposition Yposition Zposition Zrotation Xrotation Yrotation
JOINT rFoot
{
OFFSET 0 -40.14 0
CHANNELS 6 Xposition Yposition Zposition Zrotation Xrotation Yrotation
JOINT rToes
{
OFFSET 0 -8.88 14.22
CHANNELS 6 Xposition Yposition Zposition Zrotation Xrotation Yrotation
End Site
{
OFFSET 0 0 0
}
}
}
}
}
}
MOTION
Frames: 8
Frame Time: 0.03
1.35 40.55 164.26 -1.75 -14.80 -24.18 0.04 7.24 0 -1.57 7.66 3.99 -0 16.56 0 -15.37 42.21 22.16 -0 34.21 0 3.23 30.10 2.17 0 6.29 0 0.20 -45.08 -0.98 4.06 26.61 -1.12 2.15 -4.47 2.35 14.17 0 0 -60.45 14.53 -80.43 26.12 0 0 0 0 -44.13 27.71 0 0 172.43 -40.19 -171.48 2.29 -0.46 1.83 135.44 31.60 -169.14 5.29 0 0 -13.98 -3.41 3.75 3.01 0 0 12.48 0 0 9.37 0.29 2.59 -23.39 -5.82 -9.00 4.34 0 0 -24.81 -1.35 4.85 2.16 0 0 -2.16 0 0 9.47 0.83 0.29 -18.25 1.47 0.63 4.77 0 0 -41.53 -3.83 9.81 2.87 0 0 3.95 -0.04 0.40 8.65 1.01 -1.70 -2.95 -7.13 1.86 4.54 0 0 -66.67 -4.78 7.23 2.50 0 0 6.76 0 -0 7.69 0.66 -3.90 19.78 10.25 -5.64 3.21 0 0 -46.29 -6.10 14.50 1.92 0 0 4.41 0 0 -4.06 26.61 -1.12 -3.64 -3.51 -16.23 -14.17 0 0 40.23 22.08 40.76 -26.12 0 0 0 0 103.59 -27.71 0 0 -22.13 -18.80 -21.13 -2.29 -0.46 1.83 -154.88 -3.56 175.18 -5.29 0 0 24.75 2.60 20.76 -3.01 0 0 -10.64 -0.02 -0.33 -9.37 0.29 2.59 4.76 -5.99 -23.37 -4.34 0 0 12.59 0.06 -1.58 -2.16 0 0 10.45 -0.09 -0.99 -9.47 0.83 0.29 22.98 -4.58 -23.00 -4.77 0 0 124.81 -20.11 -6.00 -2.87 0 0 7.21 0.05 -2.14 -8.65 1.01 -1.70 21.99 -27.55 -14.49 -4.54 0 0 162.98 -10.46 3.28 -2.50 0 0 9.02 -0 -1.26 -7.69 0.66 -3.90 12.36 -44.84 -5.92 -3.21 0 0 146.08 -27.50 2.74 -1.92 0 0 60.70 -3.80 -3.14 8.73 -0 0 75.12 -50.86 63.55 0 -46.66 0 -180 52.64 -180 0 -40.14 0 -10.47 -31.98 16.76 0 -8.88 14.22 0 0 0 -8.73 0 -0 -23.62 -4.22 33.55 0 -46.66 0 180 56.62 -180 0 -40.14 0 -11.00 -45.74 -16.89 0 -8.88 14.22 0 0 0 
1.34 40.56 164.28 -1.71 -14.73 -24.18 0.04 7.24 0 -1.57 7.59 3.91 -0 16.56 0 -15.17 42.06 21.72 -0 34.21 0 3.17 30.16 2.15 0 6.29 0 0.15 -44.73 -0.73 4.06 26.61 -1.12 2.17 -4.47 2.47 14.17 0 0 -60.75 14.26 -80.16 26.12 0 0 0 0 -44.16 27.71 0 0 172.41 -40.39 -171.51 2.29 -0.46 1.83 135.39 31.63 -169.13 5.29 0 0 -14.03 -3.41 3.77 3.01 0 0 12.48 0 0 9.37 0.29 2.59 -23.20 -5.88 -9.04 4.34 0 0 -24.63 -1.33 4.82 2.16 0 0 -2.16 0 0 9.47 0.83 0.29 -18.02 1.51 0.53 4.77 0 0 -41.40 -3.80 9.78 2.87 0 0 3.95 -0.04 0.40 8.65 1.01 -1.70 -2.68 -7.05 1.82 4.54 0 0 -66.66 -4.78 7.23 2.50 0 0 6.76 0 -0 7.69 0.66 -3.90 20.11 10.36 -5.76 3.21 0 0 -46.22 -6.08 14.48 1.92 0 0 4.41 0 0 -4.06 26.61 -1.12 -3.64 -3.51 -16.18 -14.17 0 0 40.14 22.33 41.00 -26.12 0 0 0 0 103.64 -27.71 0 0 -21.98 -18.75 -21.28 -2.29 -0.46 1.83 -154.88 -3.56 175.18 -5.29 0 0 24.75 2.60 20.76 -3.01 0 0 -10.64 -0.02 -0.33 -9.37 0.29 2.59 4.76 -5.99 -23.37 -4.34 0 0 12.59 0.06 -1.58 -2.16 0 0 10.45 -0.09 -0.99 -9.47 0.83 0.29 22.98 -4.58 -23.00 -4.77 0 0 124.81 -20.11 -6.00 -2.87 0 0 7.21 0.05 -2.14 -8.65 1.01 -1.70 21.99 -27.55 -14.49 -4.54 0 0 162.98 -10.46 3.28 -2.50 0 0 9.02 -0 -1.26 -7.69 0.66 -3.90 12.36 -44.84 -5.92 -3.21 0 0 146.08 -27.50 2.74 -1.92 0 0 60.70 -3.80 -3.14 8.73 -0 0 75.18 -50.85 63.63 0 -46.66 0 -180 52.64 -180 0 -40.14 0 -10.48 -31.99 16.74 0 -8.88 14.22 0 0 0 -8.73 0 -0 -23.62 -4.28 33.52 0 -46.66 0 180 56.64 -180 0 -40.14 0 -11.01 -45.74 -16.91 0 -8.88 14.22 0 0 0 
1.35 40.56 164.28 -1.67 -14.66 -24.19 0.04 7.24 0 -1.56 7.53 3.83 -0 16.56 0 -14.95 41.89 21.26 -0 34.21 0 3.09 30.22 2.14 0 6.29 0 0.11 -44.39 -0.52 4.06 26.61 -1.12 2.20 -4.46 2.59 14.17 0 0 -61.04 13.99 -79.91 26.12 0 0 0 0 -44.14 27.71 0 0 172.39 -40.58 -171.57 2.29 -0.46 1.83 135.34 31.66 -169.10 5.29 0 0 -14.08 -3.42 3.79 3.01 0 0 12.48 0 0 9.37 0.29 2.59 -23.02 -5.92 -9.08 4.34 0 0 -24.46 -1.32 4.79 2.16 0 0 -2.16 0 0 9.47 0.83 0.29 -17.81 1.54 0.45 4.77 0 0 -41.27 -3.78 9.76 2.87 0 0 3.95 -0.04 0.40 8.65 1.01 -1.70 -2.44 -6.98 1.79 4.54 0 0 -66.64 -4.78 7.23 2.50 0 0 6.76 0 -0 7.69 0.66 -3.90 20.41 10.47 -5.87 3.21 0 0 -46.16 -6.06 14.47 1.92 0 0 4.41 0 0 -4.06 26.61 -1.12 -3.65 -3.51 -16.13 -14.17 0 0 40.04 22.59 41.25 -26.12 0 0 0 0 103.68 -27.71 0 0 -21.81 -18.70 -21.42 -2.29 -0.46 1.83 -154.88 -3.56 175.18 -5.29 0 0 24.75 2.60 20.76 -3.01 0 0 -10.64 -0.02 -0.33 -9.37 0.29 2.59 4.76 -5.99 -23.37 -4.34 0 0 12.59 0.06 -1.58 -2.16 0 0 10.45 -0.09 -0.99 -9.47 0.83 0.29 22.98 -4.58 -23.00 -4.77 0 0 124.81 -20.11 -6.00 -2.87 0 0 7.21 0.05 -2.14 -8.65 1.01 -1.70 21.99 -27.55 -14.49 -4.54 0 0 162.98 -10.46 3.28 -2.50 0 0 9.02 -0 -1.26 -7.69 0.66 -3.90 12.36 -44.84 -5.92 -3.21 0 0 146.08 -27.50 2.74 -1.92 0 0 60.70 -3.80 -3.14 8.73 -0 0 74.94 -50.60 63.35 0 -46.66 0 180 52.66 -180 0 -40.14 0 -10.61 -32.10 16.60 0 -8.88 14.22 0 0 0 -8.73 0 -0 -23.63 -4.20 33.88 0 -46.66 0 180 56.87 -180 0 -40.14 0 -11 -45.85 -17.01 0 -8.88 14.22 0 0 0 
1.36 40.64 164.26 -1.63 -14.58 -24.19 0.04 7.24 0 -1.56 7.46 3.74 -0 16.56 0 -14.73 41.72 20.77 -0 34.21 0 3.00 30.29 2.15 0 6.29 0 0.08 -44.05 -0.33 4.06 26.61 -1.12 2.22 -4.46 2.71 14.17 0 0 -61.32 13.72 -79.68 26.12 0 0 0 0 -44.05 27.71 0 0 172.36 -40.76 -171.65 2.29 -0.46 1.83 135.27 31.69 -169.07 5.29 0 0 -14.12 -3.42 3.80 3.01 0 0 12.48 0 0 9.37 0.29 2.59 -22.86 -5.96 -9.12 4.34 0 0 -24.32 -1.31 4.76 2.16 0 0 -2.16 0 0 9.47 0.83 0.29 -17.63 1.57 0.38 4.77 0 0 -41.16 -3.76 9.73 2.87 0 0 3.95 -0.04 0.40 8.65 1.01 -1.70 -2.23 -6.92 1.76 4.54 0 0 -66.61 -4.78 7.23 2.50 0 0 6.76 0 -0 7.69 0.66 -3.90 20.67 10.56 -5.96 3.21 0 0 -46.10 -6.04 14.45 1.92 0 0 4.41 0 0 -4.06 26.61 -1.12 -3.65 -3.51 -16.09 -14.17 0 0 39.93 22.87 41.51 -26.12 0 0 0 0 103.72 -27.71 0 0 -21.66 -18.66 -21.57 -2.29 -0.46 1.83 -154.88 -3.56 175.18 -5.29 0 0 24.75 2.60 20.76 -3.01 0 0 -10.64 -0.02 -0.33 -9.37 0.29 2.59 4.76 -5.99 -23.37 -4.34 0 0 12.59 0.06 -1.58 -2.16 0 0 10.45 -0.09 -0.99 -9.47 0.83 0.29 22.98 -4.58 -23.00 -4.77 0 0 124.81 -20.11 -6.00 -2.87 0 0 7.21 0.05 -2.14 -8.65 1.01 -1.70 21.99 -27.55 -14.49 -4.54 0 0 162.98 -10.46 3.28 -2.50 0 0 9.02 -0 -1.26 -7.69 0.66 -3.90 12.36 -44.84 -5.92 -3.21 0 0 146.08 -27.50 2.74 -1.92 0 0 60.70 -3.80 -3.14 8.73 -0 0 74.28 -50.01 62.59 0 -46.66 0 180 52.71 -180 0 -40.14 0 -10.90 -32.33 16.29 0 -8.88 14.22 0 0 0 -8.73 0 -0 -23.66 -3.95 34.79 0 -46.66 0 180 57.43 180 0 -40.14 0 -10.94 -46.11 -17.25 0 -8.88 14.22 0 0 0 
1.39 40.82 164.23 -1.58 -14.49 -24.19 0.04 7.24 0 -1.55 7.39 3.66 -0 16.56 0 -14.49 41.52 20.26 -0 34.21 0 2.90 30.37 2.17 0 6.29 0 0.04 -43.74 -0.17 4.06 26.61 -1.12 2.24 -4.45 2.81 14.17 0 0 -61.59 13.45 -79.49 26.12 0 0 0 0 -43.89 27.71 0 0 172.34 -40.91 -171.75 2.29 -0.46 1.83 135.2 31.72 -169.03 5.29 0 0 -14.15 -3.43 3.82 3.01 0 0 12.48 0 0 9.37 0.29 2.59 -22.73 -6.00 -9.14 4.34 0 0 -24.19 -1.30 4.74 2.16 0 0 -2.16 0 0 9.47 0.83 0.29 -17.47 1.59 0.32 4.77 0 0 -41.06 -3.75 9.71 2.87 0 0 3.95 -0.04 0.40 8.65 1.01 -1.70 -2.06 -6.87 1.74 4.54 0 0 -66.58 -4.77 7.22 2.50 0 0 6.76 0 -0 7.69 0.66 -3.90 20.88 10.63 -6.04 3.21 0 0 -46.04 -6.02 14.43 1.92 0 0 4.41 0 0 -4.06 26.61 -1.12 -3.65 -3.52 -16.06 -14.17 0 0 39.78 23.20 41.79 -26.12 0 0 0 0 103.76 -27.71 0 0 -21.51 -18.62 -21.71 -2.29 -0.46 1.83 -154.88 -3.56 175.18 -5.29 0 0 24.75 2.60 20.76 -3.01 0 0 -10.64 -0.02 -0.33 -9.37 0.29 2.59 4.76 -5.99 -23.37 -4.34 0 0 12.59 0.06 -1.58 -2.16 0 0 10.45 -0.09 -0.99 -9.47 0.83 0.29 22.98 -4.58 -23.00 -4.77 0 0 124.81 -20.11 -6.00 -2.87 0 0 7.21 0.05 -2.14 -8.65 1.01 -1.70 21.99 -27.55 -14.49 -4.54 0 0 162.98 -10.46 3.28 -2.50 0 0 9.02 -0 -1.26 -7.69 0.66 -3.90 12.36 -44.84 -5.92 -3.21 0 0 146.08 -27.50 2.74 -1.92 0 0 60.70 -3.80 -3.14 8.73 -0 0 73.50 -49.28 61.65 0 -46.66 0 180 52.77 -180 0 -40.14 0 -11.27 -32.62 15.91 0 -8.88 14.22 0 0 0 -8.73 0 -0 -23.70 -3.64 35.91 0 -46.66 0 180 58.12 -180 0 -40.14 0 -10.89 -46.43 -17.56 0 -8.88 14.22 0 0 0 
1.44 41.02 164.17 -1.53 -14.39 -24.19 0.04 7.24 0 -1.55 7.32 3.57 -0 16.56 0 -14.24 41.32 19.73 -0 34.21 0 2.79 30.45 2.20 0 6.29 0 0.02 -43.43 -0.06 4.06 26.61 -1.12 2.26 -4.45 2.91 14.17 0 0 -61.84 13.17 -79.34 26.12 0 0 0 0 -43.65 27.71 0 0 172.31 -41.05 -171.88 2.29 -0.46 1.83 135.10 31.73 -168.98 5.29 0 0 -14.17 -3.43 3.82 3.01 0 0 12.48 0 0 9.37 0.29 2.59 -22.62 -6.02 -9.16 4.34 0 0 -24.09 -1.29 4.72 2.16 0 0 -2.16 0 0 9.47 0.83 0.29 -17.35 1.62 0.28 4.77 0 0 -40.98 -3.73 9.70 2.87 0 0 3.95 -0.04 0.40 8.65 1.01 -1.70 -1.92 -6.83 1.73 4.54 0 0 -66.54 -4.77 7.22 2.50 0 0 6.76 0 -0 7.69 0.66 -3.90 21.04 10.68 -6.10 3.21 0 0 -45.98 -6.00 14.42 1.92 0 0 4.41 0 0 -4.06 26.61 -1.12 -3.68 -3.49 -16.37 -14.17 0 0 39.42 24.02 42.34 -26.12 0 0 0 0 103.84 -27.71 0 0 -21.80 -18.58 -21.79 -2.29 -0.46 1.83 -154.87 -3.49 174.89 -5.29 0 0 24.84 2.47 21.06 -3.01 0 0 -10.64 -0.02 -0.33 -9.37 0.29 2.59 4.67 -6.03 -23.44 -4.34 0 0 12.14 0.08 -1.50 -2.16 0 0 10.45 -0.09 -0.99 -9.47 0.83 0.29 22.44 -4.37 -23.01 -4.77 0 0 124.83 -20.12 -5.99 -2.87 0 0 7.21 0.05 -2.14 -8.65 1.01 -1.70 21.40 -27.50 -14.52 -4.54 0 0 163.48 -10.47 3.33 -2.50 0 0 9.02 -0 -1.26 -7.69 0.66 -3.90 11.50 -44.84 -6.09 -3.21 0 0 146.50 -27.57 2.85 -1.92 0 0 60.70 -3.80 -3.14 8.73 -0 0 72.82 -48.61 60.85 0 -46.66 0 180 52.82 -180 0 -40.14 0 -11.61 -32.88 15.55 0 -8.88 14.22 0 0 0 -8.73 0 -0 -23.74 -3.36 36.92 0 -46.66 0 180 58.75 -180 0 -40.14 0 -10.85 -46.71 -17.88 0 -8.88 14.22 0 0 0 
1.50 41.17 164.09 -1.48 -14.30 -24.19 0.04 7.24 0 -1.54 7.25 3.48 -0 16.56 0 -13.99 41.09 19.18 -0 34.21 0 2.66 30.55 2.25 0 6.29 0 0 -43.15 0 4.06 26.61 -1.12 2.27 -4.44 3.00 14.17 0 0 -62.08 12.89 -79.23 26.12 0 0 0 0 -43.31 27.71 0 0 172.28 -41.16 -172.05 2.29 -0.46 1.83 135 31.75 -168.92 5.29 0 0 -14.18 -3.43 3.83 3.01 0 0 12.48 0 0 9.37 0.29 2.59 -22.54 -6.03 -9.17 4.34 0 0 -24.03 -1.28 4.70 2.16 0 0 -2.16 0 0 9.47 0.83 0.29 -17.27 1.64 0.26 4.77 0 0 -40.91 -3.72 9.68 2.87 0 0 3.95 -0.04 0.40 8.65 1.01 -1.70 -1.84 -6.80 1.72 4.54 0 0 -66.49 -4.76 7.22 2.50 0 0 6.76 0 -0 7.69 0.66 -3.90 21.13 10.71 -6.13 3.21 0 0 -45.93 -5.99 14.40 1.92 0 0 4.41 0 0 -4.06 26.61 -1.12 -3.72 -3.43 -16.92 -14.17 0 0 38.92 25.14 43.12 -26.12 0 0 0 0 103.92 -27.71 0 0 -22.34 -18.54 -21.84 -2.29 -0.46 1.83 -154.85 -3.37 174.41 -5.29 0 0 24.99 2.25 21.55 -3.01 0 0 -10.64 -0.02 -0.33 -9.37 0.29 2.59 4.52 -6.08 -23.55 -4.34 0 0 11.40 0.11 -1.36 -2.16 0 0 10.45 -0.09 -0.99 -9.47 0.83 0.29 21.53 -4.02 -23.02 -4.77 0 0 124.86 -20.12 -5.99 -2.87 0 0 7.21 0.05 -2.14 -8.65 1.01 -1.70 20.42 -27.42 -14.55 -4.54 0 0 164.31 -10.50 3.42 -2.50 0 0 9.02 -0 -1.26 -7.69 0.66 -3.90 10.06 -44.83 -6.38 -3.21 0 0 147.21 -27.68 3.04 -1.92 0 0 60.70 -3.80 -3.14 8.73 -0 0 72.47 -48.22 60.43 0 -46.66 0 180 52.85 -180 0 -40.14 0 -11.83 -33.04 15.34 0 -8.88 14.22 0 0 0 -8.73 0 -0 -23.76 -3.23 37.49 0 -46.66 0 180 59.12 -180 0 -40.14 0 -10.84 -46.86 -18.09 0 -8.88 14.22 0 0 0 
1.58 41.21 163.98 -1.53 -14.66 -24.62 0.04 7.24 0 -1.54 7.12 3.32 -0 16.56 0 -13.48 40.66 18.05 -0 34.21 0 2.50 30.70 2.33 0 6.29 0 -0.17 -42.65 0.20 4.06 26.61 -1.12 2.31 -4.43 3.16 14.17 0 0 -62.75 12.72 -79.58 26.12 0 0 0 0 -41.51 27.71 0 0 172.26 -41.48 -171.93 2.29 -0.46 1.83 135.02 31.80 -168.95 5.29 0 0 -14.28 -3.44 3.87 3.01 0 0 12.48 0 0 9.37 0.29 2.59 -22.22 -6.13 -9.25 4.34 0 0 -23.71 -1.26 4.64 2.16 0 0 -2.16 0 0 9.47 0.83 0.29 -16.87 1.68 0.08 4.77 0 0 -40.69 -3.68 9.64 2.87 0 0 3.95 -0.04 0.40 8.65 1.01 -1.70 -1.37 -6.67 1.65 4.54 0 0 -66.51 -4.76 7.22 2.50 0 0 6.76 0 0 7.69 0.66 -3.90 21.73 10.93 -6.35 3.21 0 0 -45.85 -5.96 14.38 1.92 0 0 4.41 0 0 -4.06 26.61 -1.12 -3.73 -3.42 -17.02 -14.17 0 0 38.40 26.11 43.85 -26.12 0 0 0 0 103.92 -27.71 0 0 -22.28 -18.50 -22.01 -2.29 -0.46 1.83 -154.85 -3.34 174.32 -5.29 0 0 25.03 2.21 21.65 -3.01 0 0 -10.64 -0.02 -0.33 -9.37 0.29 2.59 4.48 -6.09 -23.57 -4.34 0 0 11.25 0.12 -1.34 -2.16 0 0 10.45 -0.09 -0.99 -9.47 0.83 0.29 21.35 -3.95 -23.02 -4.77 0 0 124.87 -20.13 -5.99 -2.87 0 0 7.21 0.05 -2.14 -8.65 1.01 -1.70 20.23 -27.40 -14.56 -4.54 0 0 164.48 -10.51 3.44 -2.50 0 0 9.02 -0 -1.26 -7.69 0.66 -3.90 9.77 -44.83 -6.44 -3.21 0 0 147.35 -27.70 3.08 -1.92 0 0 60.70 -3.80 -3.14 8.73 -0 0 72.65 -48.34 60.67 0 -46.66 0 -180 52.85 -180 0 -40.14 0 -11.82 -33.03 15.37 0 -8.88 14.22 0 0 0 -8.73 0 -0 -23.75 -3.37 37.29 0 -46.66 0 180 59.04 -180 0 -40.14 0 -10.86 -46.81 -18.06 0 -8.88 14.22 0 0 0 
